<!--?xml version="1.0" standalone="no"?-->
              <svg id="sw-js-blob-svg" viewBox="0 0 100 100" xmlns="http://www.w3.org/2000/svg" version="1.1">
                    <defs> 
                        <linearGradient id="sw-gradient" x1="0" x2="1" y1="1" y2="0">
                            <stop id="stop1" stop-color="rgba(55, 248, 64.917, 1)" offset="0%"></stop>
                            <stop id="stop2" stop-color="rgba(220.938, 251, 31, 1)" offset="100%"></stop>
                        </linearGradient>
                    </defs>
                <path fill="url(#sw-gradient)" d="M19.1,-26.6C24.5,-22.4,28.4,-16.5,30.7,-9.9C32.9,-3.3,33.6,3.9,32.6,11.8C31.7,19.7,29.2,28.2,23.5,32.4C17.8,36.6,8.9,36.4,-0.3,36.8C-9.6,37.3,-19.1,38.4,-24.5,34.1C-29.9,29.8,-31.2,20.2,-32.3,11.7C-33.4,3.2,-34.2,-4.1,-33.2,-11.8C-32.1,-19.6,-29.1,-27.7,-23.2,-31.8C-17.4,-35.8,-8.7,-35.8,-0.9,-34.5C6.9,-33.3,13.7,-30.8,19.1,-26.6Z" width="100%" height="100%" transform="translate(50 50)" style="transition: all 0.3s ease 0s;" stroke-width="0"></path>
              </svg>